<?xml version="1.0" standalone="no"?>
<!DOCTYPE svg PUBLIC "-//W3C//DTD SVG 20010904//EN"
 "http://www.w3.org/TR/2001/REC-SVG-20010904/DTD/svg10.dtd">
<svg version="1.0" xmlns="http://www.w3.org/2000/svg"
 width="700.000000pt" height="700.000000pt" viewBox="0 0 700.000000 700.000000"
 preserveAspectRatio="xMidYMid meet">
<metadata>
Created by potrace 1.14, written by Peter Selinger 2001-2017
</metadata>
<g transform="translate(0.000000,700.000000) scale(0.100000,-0.100000)"
fill="#000000" stroke="none">
<path d="M2266 6820 c-50 -15 -121 -71 -154 -119 -41 -63 -55 -112 -50 -185
l4 -62 -115 -60 c-148 -76 -388 -235 -527 -349 -390 -320 -716 -759 -907
-1224 l-43 -105 -65 -1 c-118 -3 -224 -72 -275 -180 -34 -71 -33 -180 0 -252
29 -60 89 -122 144 -147 41 -19 42 -21 28 -101 -3 -16 -8 -60 -11 -96 -4 -36
-8 -86 -11 -110 -5 -56 -5 -351 0 -404 3 -22 7 -72 10 -110 4 -39 8 -81 10
-95 3 -14 10 -59 16 -100 38 -242 138 -563 249 -802 l32 -67 -36 -38 c-107
-114 -66 -297 81 -354 38 -14 128 -13 153 3 11 7 22 10 24 8 2 -3 39 -52 83
-110 81 -109 99 -130 199 -239 353 -386 822 -689 1318 -850 113 -37 283 -82
357 -95 14 -2 52 -9 85 -15 33 -6 92 -15 131 -21 66 -11 72 -13 72 -36 0 -103
86 -241 192 -308 121 -77 297 -82 417 -13 125 71 205 195 216 332 l4 39 107
23 c427 89 766 232 1137 479 96 64 238 175 314 245 22 20 55 50 74 67 l33 30
52 -26 c69 -36 188 -38 256 -5 110 54 170 139 178 254 6 86 -11 148 -56 207
l-34 44 30 42 c73 103 197 332 269 499 112 258 201 604 229 882 3 33 7 71 9
85 1 13 11 29 21 35 101 55 133 124 96 208 -27 61 -71 90 -137 91 -43 0 -60
-5 -90 -28 -40 -31 -65 -78 -65 -125 0 -17 -6 -34 -14 -38 -8 -4 -52 -42 -97
-84 -46 -42 -149 -134 -229 -205 -80 -71 -150 -133 -156 -139 -6 -5 -44 -39
-84 -75 -41 -36 -90 -80 -109 -97 -20 -18 -38 -33 -41 -33 -3 0 -23 9 -45 20
-22 11 -45 20 -51 20 -9 0 -12 147 -11 632 l2 632 35 10 c45 13 122 91 137
138 21 72 1 160 -51 216 -56 63 -173 85 -246 47 l-34 -18 -106 111 c-129 136
-355 374 -393 416 -16 17 -60 64 -99 103 -70 72 -71 73 -58 104 43 102 -46
227 -150 213 -88 -13 -142 -74 -141 -159 l0 -53 -97 -62 c-53 -35 -170 -110
-260 -167 l-162 -105 -30 25 c-41 35 -93 50 -150 45 l-48 -5 -135 276 c-75
152 -156 318 -181 370 l-46 93 24 29 c27 31 42 96 30 131 -29 96 -133 140
-222 94 -28 -15 -29 -14 -168 90 -76 58 -146 110 -154 117 -8 7 -46 35 -83 62
-44 33 -66 55 -63 65 3 8 12 35 21 60 21 55 16 159 -10 213 -28 60 -92 124
-150 151 -43 21 -68 26 -127 25 -40 0 -86 -5 -102 -9z m-136 -496 c0 -10 -269
-319 -459 -529 -20 -22 -72 -80 -116 -130 -43 -49 -81 -92 -84 -95 -4 -3 -35
-39 -71 -80 -36 -41 -74 -84 -85 -96 -11 -11 -49 -54 -85 -95 -61 -70 -205
-232 -274 -309 -17 -19 -65 -73 -106 -120 -41 -47 -91 -103 -111 -125 -20 -22
-51 -57 -70 -79 l-35 -38 -47 33 c-26 18 -47 37 -47 41 0 19 85 209 148 332
283 553 772 1042 1312 1312 l85 42 22 -26 c12 -15 22 -32 23 -38z m685 -179
l214 -160 -6 -45 c-3 -31 0 -59 11 -84 14 -33 14 -42 3 -55 -7 -9 -60 -72
-118 -141 -57 -69 -106 -127 -109 -130 -3 -3 -39 -45 -81 -95 -41 -49 -121
-145 -177 -211 l-103 -122 -47 18 c-26 11 -54 21 -63 24 -13 4 -16 15 -14 53
4 47 9 157 20 378 3 61 7 139 10 175 2 36 7 128 11 205 3 77 8 154 9 170 2 17
3 44 4 61 1 28 5 31 54 44 51 13 119 49 132 70 4 6 14 10 22 8 8 -2 111 -75
228 -163z m-524 85 c11 0 19 -6 20 -12 1 -15 -3 -145 -6 -203 -2 -22 -6 -98
-9 -170 -4 -71 -9 -157 -11 -190 -2 -33 -7 -121 -11 -195 -4 -74 -8 -148 -9
-165 -1 -16 -3 -55 -4 -86 l-1 -56 -42 -7 c-136 -22 -244 -149 -251 -297 l-3
-43 -74 -18 c-77 -18 -100 -23 -135 -32 -11 -2 -96 -22 -190 -44 -492 -114
-669 -156 -759 -178 -55 -13 -100 -23 -101 -21 -1 1 -9 16 -17 33 -15 30 -14
31 31 81 57 62 96 105 191 213 41 47 77 87 80 90 3 3 36 41 75 85 72 82 129
146 178 199 15 16 45 51 67 76 22 26 50 58 62 72 30 32 66 73 163 183 44 50
84 95 90 101 5 6 37 42 71 80 131 148 328 370 338 380 6 6 42 47 81 91 l69 80
45 -23 c24 -13 52 -24 62 -24z m892 -470 c30 -1 34 -6 69 -78 21 -42 101 -207
178 -365 l141 -288 -35 -40 c-19 -22 -37 -53 -41 -67 -4 -15 -10 -31 -15 -37
-9 -11 -879 -13 -897 -2 -6 4 -13 24 -16 45 -4 21 -21 59 -38 85 l-31 47 99
118 c55 64 141 167 192 227 52 61 143 169 204 242 102 121 112 131 134 122 13
-5 39 -9 56 -9z m1270 -510 l29 -14 -7 -80 c-4 -45 -8 -92 -10 -106 -2 -14 -6
-54 -10 -90 -3 -36 -8 -81 -10 -100 -3 -19 -7 -66 -10 -105 -5 -67 -10 -118
-20 -215 -12 -114 -14 -139 -20 -200 -4 -36 -8 -83 -10 -105 -8 -83 -15 -152
-20 -215 -9 -101 -14 -120 -35 -120 -10 0 -31 -11 -46 -24 l-28 -23 -40 22
c-23 12 -147 76 -276 143 -129 66 -291 150 -360 186 -69 37 -162 85 -207 108
l-82 42 59 65 c32 36 96 106 142 154 l83 88 39 -16 c141 -60 301 47 297 198
-1 29 -2 62 -4 74 -2 19 36 47 253 187 140 91 257 164 260 163 3 -2 18 -9 33
-17z m492 -356 c83 -87 191 -201 241 -253 l90 -93 -24 -51 c-24 -49 -26 -97
-8 -162 4 -16 -6 -27 -52 -56 -48 -31 -293 -191 -609 -399 l-72 -47 -27 28
c-15 16 -36 32 -47 35 -20 6 -20 0 -2 184 1 14 6 59 9 100 4 41 9 86 11 100 3
24 14 133 21 215 4 51 13 147 19 205 3 25 7 70 10 100 3 30 8 75 10 100 3 25
8 70 10 100 9 101 16 175 20 195 2 11 4 23 4 27 1 3 13 11 29 16 30 12 34 8
367 -344z m-1459 -101 c3 -10 13 -34 23 -53 14 -26 16 -38 7 -46 -11 -10 -147
-157 -239 -258 l-45 -50 -74 37 c-40 20 -134 69 -208 108 -74 39 -192 100
-263 135 -137 70 -132 65 -111 132 3 9 102 12 454 12 421 0 451 -1 456 -17z
m-1473 -104 c30 -54 29 -58 -18 -111 -17 -18 -87 -96 -155 -173 -69 -77 -129
-145 -135 -151 -5 -6 -57 -63 -114 -128 -91 -103 -131 -135 -131 -107 0 25
-160 51 -225 37 -125 -28 -234 -160 -236 -286 -2 -71 13 -124 50 -182 27 -42
92 -100 124 -111 11 -3 1 -45 -88 -332 -20 -66 -67 -221 -105 -345 -37 -124
-85 -279 -105 -345 -21 -66 -42 -137 -48 -158 -8 -32 -13 -37 -31 -31 -11 3
-24 9 -28 13 -5 5 -34 181 -53 326 -6 43 -36 247 -40 263 -1 9 -6 40 -9 67 -4
28 -11 75 -16 105 -5 30 -12 75 -15 100 -3 25 -9 72 -15 105 -31 196 -40 255
-45 300 -3 28 -8 61 -10 75 -5 25 -8 47 -20 125 -3 22 -10 67 -15 100 -5 33
-12 80 -15 105 -3 25 -10 69 -16 98 -6 30 -9 55 -7 57 1 1 23 12 46 24 106 54
171 147 180 257 2 35 7 64 11 64 3 0 74 16 156 36 83 19 157 37 165 39 13 3
303 71 340 80 8 2 57 13 108 25 52 11 159 36 238 55 80 19 157 37 171 39 14 3
27 7 29 8 1 2 13 4 26 5 18 2 29 -9 51 -48z m660 -88 c73 -37 213 -110 312
-161 99 -51 184 -96 189 -100 4 -5 -14 -32 -40 -60 -27 -29 -80 -87 -119 -128
-38 -42 -83 -90 -99 -106 -15 -17 -39 -44 -52 -59 l-23 -28 -39 25 c-71 44
-130 60 -228 60 -83 0 -96 -3 -165 -36 -45 -21 -93 -54 -122 -84 -49 -50 -107
-154 -107 -193 0 -18 -7 -24 -30 -23 -13 0 -216 19 -285 26 -22 3 -71 8 -110
11 -131 11 -145 15 -146 38 -1 44 -10 71 -41 127 l-31 58 168 188 c92 104 184
207 203 229 20 22 54 60 76 85 23 25 56 63 74 84 l34 39 46 -22 c26 -11 65
-25 87 -29 89 -18 220 28 274 95 14 18 30 33 34 33 5 0 68 -31 140 -69z m792
-411 c110 -57 250 -129 310 -160 61 -32 182 -95 270 -140 88 -45 164 -86 169
-91 5 -5 11 -28 12 -51 2 -24 5 -51 6 -61 3 -18 -61 -66 -389 -288 l-103 -69
-37 20 c-21 11 -50 20 -66 20 -34 0 -87 -21 -110 -45 -20 -19 -16 -21 -232 80
-49 23 -137 63 -195 89 l-105 47 -1 87 c-1 101 -20 164 -70 235 -34 47 -34 49
-17 72 53 70 339 371 348 365 6 -4 100 -53 210 -110z m1849 51 c9 -10 36 -26
60 -35 l42 -16 0 -630 c0 -504 -2 -630 -13 -630 -7 0 -28 -7 -46 -16 l-34 -16
-111 113 c-60 63 -134 139 -162 169 -43 45 -252 263 -477 497 -72 74 -79 67
230 269 149 98 317 209 372 246 55 37 105 67 111 67 6 1 19 -7 28 -18z m-4883
-160 c0 -9 3 -29 5 -46 3 -16 16 -106 30 -200 14 -93 36 -242 49 -330 13 -88
27 -182 31 -210 7 -50 9 -67 18 -115 3 -14 8 -47 11 -75 3 -27 10 -75 15 -105
5 -30 12 -75 15 -100 6 -47 14 -99 39 -260 8 -52 18 -115 21 -140 3 -25 8 -56
10 -70 2 -14 7 -45 10 -70 3 -25 8 -52 10 -61 9 -27 -23 -31 -39 -6 -28 42
-117 261 -161 392 -55 168 -98 357 -130 575 -25 178 -25 575 1 730 5 31 11 75
13 106 2 18 51 4 52 -15z m1374 -406 c22 -2 63 -6 90 -9 28 -3 84 -8 125 -12
41 -4 82 -8 90 -10 8 -1 24 -3 35 -3 17 -1 21 -8 22 -41 4 -112 83 -247 179
-307 35 -22 42 -32 37 -48 -3 -11 -62 -153 -130 -316 l-124 -296 -62 -1 c-34
0 -72 -2 -85 -4 -25 -3 -25 -4 -109 152 -22 41 -82 152 -133 245 -51 94 -106
195 -122 225 -17 30 -43 78 -58 105 -15 28 -39 72 -54 98 l-26 48 30 26 c35
29 90 119 90 147 0 19 21 19 205 1z m2789 -113 c46 -48 107 -112 136 -142 29
-30 137 -143 240 -250 296 -307 300 -311 300 -318 0 -4 -6 -19 -14 -33 -7 -14
-16 -42 -20 -62 -8 -42 -9 -43 -61 -51 -142 -22 -298 -48 -345 -56 -47 -8
-261 -43 -340 -55 -14 -2 -66 -11 -117 -20 -90 -15 -93 -15 -115 4 -13 11 -31
26 -41 34 -18 13 -17 20 26 188 25 96 82 318 127 494 59 230 87 326 102 342
12 12 25 20 29 17 5 -3 47 -44 93 -92z m-246 43 c26 -5 32 -11 27 -25 -3 -10
-8 -27 -10 -37 -2 -10 -39 -157 -83 -328 -44 -170 -94 -369 -112 -441 l-33
-131 -54 -10 c-36 -7 -56 -6 -60 0 -4 6 -68 113 -144 238 l-137 228 24 46 c18
36 22 58 18 90 l-5 43 103 70 c57 38 173 117 258 175 93 64 158 103 165 98 5
-5 25 -12 43 -16z m-1193 -208 c66 -30 150 -68 187 -85 37 -17 83 -38 103 -46
54 -23 45 -51 -30 -94 -50 -29 -178 -103 -365 -210 -19 -12 -51 -29 -70 -40
-19 -11 -142 -80 -272 -155 -130 -75 -263 -150 -294 -167 -31 -18 -79 -45
-106 -61 -28 -17 -51 -29 -52 -27 -1 2 -16 22 -34 46 -22 27 -31 49 -27 60 3
9 62 153 131 318 l126 302 32 -9 c94 -26 212 -10 301 41 61 35 135 110 164
169 l21 41 33 -14 c17 -7 86 -38 152 -69z m-1488 -373 c225 -413 242 -447 226
-462 -25 -26 -53 -94 -53 -132 l0 -35 -222 -59 c-123 -32 -281 -74 -353 -93
-71 -19 -178 -47 -237 -63 l-107 -28 -24 37 -24 36 23 75 c12 41 72 239 134
440 61 201 118 389 126 419 8 29 17 57 20 62 3 5 7 17 9 26 2 10 16 60 31 111
l28 92 60 1 c34 1 72 5 86 9 14 4 27 8 30 9 3 0 114 -200 247 -445z m4699 432
c3 -8 19 -20 36 -27 l30 -12 -6 -71 c-8 -86 -19 -172 -30 -231 -2 -11 -7 -40
-11 -65 -18 -113 -117 -449 -160 -544 -7 -17 -28 -65 -46 -106 -60 -141 -191
-377 -256 -463 l-18 -24 -45 19 c-25 11 -72 20 -106 21 l-60 2 -77 279 -77
278 45 40 c25 22 53 57 61 77 21 48 22 138 1 177 l-16 32 162 143 c89 79 171
153 183 164 12 11 37 34 55 50 19 17 96 85 171 153 76 67 143 122 148 122 6 0
13 -6 16 -14z m-2856 -330 c9 -12 4 -25 -28 -68 -21 -29 -56 -78 -77 -108 -21
-30 -104 -147 -184 -260 -278 -394 -372 -526 -453 -643 l-83 -118 -35 7 c-110
22 -193 -7 -245 -87 -32 -49 -37 -51 -115 -34 -14 3 -185 35 -380 70 -195 36
-377 70 -405 75 -46 9 -280 53 -350 65 -31 5 -63 11 -102 19 -11 3 -42 8 -67
11 -29 5 -46 12 -46 21 0 8 2 14 5 14 3 0 69 18 148 39 78 21 281 76 450 121
l309 82 15 -21 c47 -68 100 -100 177 -105 125 -10 223 84 230 218 1 17 85 69
406 254 223 128 414 237 425 242 11 5 43 23 70 40 28 16 56 33 64 37 8 3 66
37 130 74 64 38 119 68 122 69 4 0 12 -6 19 -14z m75 -168 c-3 -62 -8 -147
-10 -188 -2 -41 -7 -118 -10 -170 -7 -115 -13 -225 -20 -345 -3 -49 -7 -124
-10 -165 -3 -41 -7 -122 -10 -180 -3 -58 -7 -132 -9 -165 -2 -33 -7 -116 -11
-185 -4 -69 -8 -143 -10 -165 -2 -22 -6 -103 -10 -180 -4 -77 -9 -153 -10
-170 -2 -16 -3 -42 -4 -56 -1 -24 -5 -27 -53 -32 -42 -4 -110 -28 -159 -54 -3
-2 -66 76 -140 173 -74 97 -186 245 -250 328 -142 187 -134 174 -115 194 29
33 45 87 41 144 -3 58 -15 89 -45 123 -20 22 -68 -50 681 1008 77 108 144 197
150 197 8 0 9 -36 4 -112z m244 -128 l143 -239 -27 -35 c-72 -94 -63 -210 23
-293 l45 -44 -67 -202 c-36 -111 -130 -395 -208 -631 -87 -262 -147 -430 -156
-434 -16 -6 -48 11 -45 25 0 4 4 67 8 138 4 72 8 155 10 185 2 30 6 107 10
170 3 63 8 138 10 165 2 28 7 109 11 180 4 72 8 146 9 165 1 19 6 100 10 180
4 80 9 163 11 185 1 22 6 99 9 170 4 72 8 150 10 175 2 25 7 104 11 175 7 127
11 197 13 203 8 20 50 -39 170 -238z m1425 -203 c3 -12 18 -36 35 -52 l29 -31
-40 -44 c-67 -74 -196 -214 -236 -257 -20 -22 -77 -84 -127 -138 -49 -54 -95
-103 -100 -109 -10 -11 -46 -49 -245 -265 -58 -63 -118 -129 -135 -146 -16
-18 -66 -72 -110 -120 -44 -49 -102 -111 -128 -139 -27 -28 -65 -69 -85 -91
-96 -107 -252 -276 -298 -324 l-52 -55 -34 25 c-18 14 -41 28 -50 32 -10 3
-18 12 -18 19 0 7 94 296 208 642 l208 628 50 3 c125 7 210 107 202 237 -3 58
-2 61 22 65 23 3 305 49 360 58 118 20 414 67 450 72 25 3 47 7 49 9 13 12 40
1 45 -19z m222 -131 c4 -4 155 -558 152 -560 -2 -1 -19 -12 -38 -24 -125 -75
-180 -222 -134 -359 9 -25 14 -46 12 -47 -2 -2 -23 -12 -48 -24 -176 -81 -364
-169 -429 -199 -76 -35 -170 -79 -246 -113 -22 -10 -233 -109 -470 -218 l-430
-200 -17 21 c-10 12 -18 27 -17 32 0 6 30 42 67 81 37 40 112 120 167 180 55
59 121 131 147 159 26 28 56 61 66 73 11 13 49 53 84 90 52 56 169 184 273
297 32 36 225 244 287 310 31 33 65 70 75 82 16 18 126 138 228 248 20 22 67
73 103 113 l66 72 51 -6 c27 -4 51 -7 51 -8z m-4436 -516 c41 -7 84 -14 95
-16 11 -2 58 -11 105 -20 47 -9 94 -18 105 -20 19 -4 114 -21 160 -29 11 -1
70 -12 130 -24 120 -22 154 -28 200 -36 17 -3 41 -8 55 -10 14 -3 36 -8 50
-10 14 -3 113 -21 220 -41 107 -20 197 -37 200 -39 3 -2 7 -18 8 -36 7 -97
112 -189 214 -189 14 0 43 6 65 14 l39 14 55 -72 c30 -39 146 -192 258 -339
l203 -269 -23 -26 c-13 -15 -26 -29 -29 -32 -3 -3 -13 -17 -22 -32 l-17 -26
-378 210 c-208 115 -405 224 -438 242 -33 18 -118 66 -190 106 -71 40 -155 87
-185 103 -30 16 -116 64 -190 106 -74 41 -165 91 -201 111 -36 19 -190 104
-342 189 -249 139 -275 156 -266 173 6 11 17 17 27 14 9 -2 51 -10 92 -16z
m-13 -156 c65 -37 152 -84 193 -107 41 -22 80 -43 85 -47 6 -4 42 -25 80 -45
39 -21 207 -115 375 -208 168 -93 330 -183 360 -200 120 -66 151 -84 315 -175
94 -53 200 -112 236 -131 36 -20 143 -79 237 -131 l173 -95 -5 -35 c-3 -19 -5
-39 -6 -43 0 -12 -80 -3 -245 28 -490 93 -936 299 -1345 624 -104 82 -326 299
-411 401 -30 36 -56 67 -59 70 -24 24 -118 160 -111 160 6 0 63 -30 128 -66z
m4482 -381 c-1 -10 -137 -131 -234 -208 -79 -64 -287 -204 -385 -259 -190
-108 -476 -227 -673 -281 -108 -29 -103 -28 -207 -50 -41 -8 -85 -17 -97 -20
-17 -4 -23 2 -32 27 -6 17 -11 33 -11 35 0 2 37 21 83 42 45 21 131 62 191 90
59 28 109 51 111 51 2 0 52 23 111 51 109 51 189 89 294 136 30 14 91 42 135
63 44 21 179 83 300 140 121 56 261 121 310 145 95 46 105 50 104 38z"/>
<path d="M3955 6694 c-58 -62 -17 -164 65 -164 32 0 67 21 79 47 33 72 -6 143
-79 143 -31 0 -47 -6 -65 -26z"/>
<path d="M5093 6248 c-25 -12 -52 -62 -48 -87 2 -9 4 -22 4 -29 2 -27 49 -62
85 -62 48 0 65 8 81 41 47 89 -34 180 -122 137z"/>
<path d="M4049 6047 c-56 -29 -81 -65 -86 -124 -5 -60 26 -117 77 -144 135
-73 282 78 203 210 -42 72 -121 95 -194 58z"/>
<path d="M5594 5595 c-53 -22 -71 -101 -34 -148 28 -35 79 -44 118 -21 37 21
50 48 47 93 -5 63 -70 102 -131 76z"/>
<path d="M6735 4841 c-43 -13 -84 -46 -101 -83 -79 -176 156 -307 264 -147 32
47 28 136 -9 175 -43 46 -106 68 -154 55z"/>
</g>
</svg>
