<svg xmlns="http://www.w3.org/2000/svg" xmlns:xlink="http://www.w3.org/1999/xlink" width="500" zoomAndPan="magnify" viewBox="0 0 375 374.999991" height="500" preserveAspectRatio="xMidYMid meet" version="1.0"><defs><clipPath id="b4e4a3e57d"><path d="M 5.660156 8.765625 L 370.910156 8.765625 L 370.910156 368 L 5.660156 368 Z M 5.660156 8.765625 " clip-rule="nonzero"/></clipPath><clipPath id="32ec9c7e1c"><path d="M 220.359375 50.035156 C 224.917969 50.035156 228.597656 53.71875 228.597656 58.28125 C 228.597656 62.839844 224.917969 66.527344 220.359375 66.527344 C 215.800781 66.527344 212.117188 62.839844 212.117188 58.28125 C 212.117188 53.71875 215.800781 50.035156 220.359375 50.035156 Z M 355.0625 184.09375 C 355.0625 188.21875 352.03125 191.601562 348.070312 192.214844 C 345.929688 222.722656 335.585938 251 319.195312 274.839844 C 322.316406 277.839844 324.28125 282.035156 324.28125 286.71875 C 324.28125 295.820312 316.898438 303.207031 307.800781 303.207031 C 304.136719 303.207031 300.769531 301.960938 298.035156 299.945312 C 274.054688 323.328125 243.113281 339.574219 208.628906 345.1875 C 208.628906 345.34375 208.683594 345.5 208.683594 345.660156 C 208.683594 357.992188 198.691406 367.972656 186.382812 367.972656 C 174.339844 367.972656 164.59375 358.394531 164.15625 346.464844 C 114.367188 341.222656 71.050781 313.996094 44.089844 274.664062 C 42.441406 275.558594 40.597656 276.105469 38.601562 276.105469 C 32.167969 276.105469 26.941406 270.875 26.941406 264.4375 C 26.941406 260.316406 29.097656 256.703125 32.324219 254.632812 C 21.175781 232.265625 14.882812 207.074219 14.882812 180.429688 C 14.882812 171.640625 15.652344 162.957031 17.019531 154.414062 C 10.445312 152.238281 5.660156 146.097656 5.660156 138.800781 C 5.660156 129.695312 13.042969 122.308594 22.140625 122.308594 C 23.226562 122.308594 24.296875 122.433594 25.332031 122.625 C 40.300781 82.367188 70.507812 48.40625 110.457031 29.476562 C 110.546875 29.441406 110.632812 29.40625 110.738281 29.351562 C 110.40625 28.054688 110.179688 26.703125 110.179688 25.300781 C 110.179688 16.195312 117.558594 8.8125 126.65625 8.8125 C 133.285156 8.8125 138.980469 12.757812 141.574219 18.40625 C 141.664062 18.390625 141.75 18.355469 141.820312 18.335938 L 142.417969 20.773438 C 142.839844 22.214844 143.117188 23.703125 143.117188 25.285156 C 143.117188 28.40625 142.207031 31.300781 140.699219 33.773438 L 164.734375 52.019531 C 166.171875 50.773438 168.03125 50 170.082031 50 C 174.636719 50 178.320312 53.683594 178.320312 58.246094 C 178.320312 60.878906 177.074219 63.191406 175.148438 64.703125 L 194.554688 104.417969 C 195.65625 104.066406 196.816406 103.820312 198.042969 103.820312 C 201.53125 103.820312 204.617188 105.382812 206.753906 107.804688 L 234.960938 89.644531 C 234.628906 88.734375 234.417969 87.769531 234.417969 86.753906 C 234.417969 82.191406 238.097656 78.507812 242.65625 78.507812 C 247.214844 78.507812 250.898438 82.191406 250.898438 86.753906 C 250.898438 88.488281 250.351562 90.085938 249.441406 91.417969 L 285.257812 129.257812 C 287.148438 127.941406 289.429688 127.152344 291.917969 127.152344 C 298.351562 127.152344 303.574219 132.378906 303.574219 138.816406 C 303.574219 144.660156 299.261719 149.464844 293.652344 150.308594 L 293.652344 217.933594 C 295.808594 218.25 297.738281 219.160156 299.332031 220.496094 L 338.726562 185.339844 C 338.671875 184.9375 338.601562 184.53125 338.601562 184.113281 C 338.601562 179.550781 342.285156 175.867188 346.839844 175.867188 C 351.382812 175.851562 355.0625 179.535156 355.0625 184.09375 Z M 283.257812 146.535156 L 242.585938 173.21875 C 242.605469 173.410156 242.640625 173.605469 242.640625 173.816406 C 242.640625 174.375 242.585938 174.917969 242.480469 175.445312 L 285.1875 219.898438 C 286.640625 218.863281 288.34375 218.179688 290.183594 217.917969 L 290.183594 150.273438 C 287.429688 149.871094 285.027344 148.519531 283.257812 146.535156 Z M 280.261719 229.390625 C 280.261719 226.703125 281.1875 224.285156 282.714844 222.300781 L 240.9375 178.796875 C 240.273438 179.65625 239.464844 180.375 238.519531 180.917969 L 224.882812 234.617188 C 226.582031 235.335938 228.035156 236.457031 229.210938 237.84375 L 280.296875 229.527344 C 280.277344 229.476562 280.261719 229.441406 280.261719 229.390625 Z M 135.5625 124.539062 C 132.617188 129.011719 127.570312 131.957031 121.820312 131.957031 C 118.226562 131.957031 114.945312 130.785156 112.230469 128.835938 L 82.042969 162.761719 C 84.671875 165.65625 86.320312 169.464844 86.355469 173.675781 L 116.382812 176.570312 C 118.207031 166.097656 127.304688 158.097656 138.296875 158.097656 C 143.503906 158.097656 148.21875 159.957031 152.023438 162.9375 L 170.640625 142.695312 Z M 173.0625 140.082031 L 188.996094 122.75 C 187.734375 121.171875 186.875 119.292969 186.558594 117.207031 L 138.121094 117.207031 C 137.964844 118.695312 137.667969 120.136719 137.140625 121.46875 Z M 186.402344 202.742188 C 186.402344 202.144531 186.472656 201.550781 186.59375 200.988281 L 159.054688 188.460938 C 155.828125 196.8125 147.78125 202.742188 138.296875 202.742188 C 135.859375 202.742188 133.546875 202.25 131.355469 201.53125 L 116.960938 235.949219 C 118.628906 237.144531 119.960938 238.757812 120.800781 240.652344 L 186.4375 203.109375 C 186.417969 202.96875 186.402344 202.863281 186.402344 202.742188 Z M 79.253906 187.375 L 105.164062 234.898438 C 106.691406 234.160156 108.371094 233.722656 110.179688 233.722656 C 111.476562 233.722656 112.703125 233.984375 113.878906 234.371094 L 128.164062 200.199219 C 120.976562 196.496094 116 189.078125 116 180.429688 C 116 180.289062 116.035156 180.148438 116.035156 180.007812 L 86.039062 177.113281 C 85.179688 181.359375 82.691406 184.988281 79.253906 187.375 Z M 99.484375 250 L 50.136719 263.140625 C 50.1875 263.5625 50.257812 263.964844 50.257812 264.402344 L 127.324219 278.59375 C 128.902344 274.015625 133.195312 270.71875 138.296875 270.71875 C 140.191406 270.71875 141.945312 271.210938 143.523438 272 L 188.59375 208.304688 C 188.101562 207.777344 187.699219 207.179688 187.367188 206.53125 L 121.695312 244.105469 C 121.75 244.527344 121.820312 244.949219 121.820312 245.371094 C 121.820312 251.808594 116.59375 257.035156 110.160156 257.035156 C 105.394531 257.035156 101.273438 254.140625 99.484375 250 Z M 194.640625 194.496094 C 196.832031 194.496094 198.8125 195.375 200.285156 196.777344 L 227.421875 178.148438 C 226.632812 176.882812 226.160156 175.410156 226.160156 173.816406 C 226.160156 173.058594 226.300781 172.359375 226.476562 171.65625 L 173.816406 144.359375 L 154.582031 165.273438 C 158.28125 169.253906 160.597656 174.550781 160.597656 180.429688 C 160.597656 182.042969 160.402344 183.621094 160.089844 185.128906 L 188.050781 197.847656 C 189.539062 195.832031 191.921875 194.496094 194.640625 194.496094 Z M 200.269531 208.722656 L 215.871094 234.597656 C 217.253906 234.019531 218.761719 233.703125 220.339844 233.703125 C 220.742188 233.703125 221.113281 233.773438 221.496094 233.828125 L 234.664062 182.023438 C 234.574219 182.023438 234.503906 182.042969 234.417969 182.042969 C 232.734375 182.042969 231.175781 181.535156 229.859375 180.65625 L 202.25 199.585938 C 202.652344 200.550781 202.863281 201.601562 202.863281 202.707031 C 202.863281 205.109375 201.863281 207.234375 200.269531 208.722656 Z M 236.644531 165.921875 C 238.746094 166.515625 240.484375 167.902344 241.535156 169.761719 L 281.328125 143.640625 C 280.644531 142.152344 280.242188 140.519531 280.242188 138.78125 C 280.242188 136.082031 281.207031 133.609375 282.75 131.644531 L 246.898438 93.769531 C 245.898438 94.367188 244.777344 94.75 243.570312 94.890625 Z M 191.503906 125.132812 L 176.234375 141.730469 L 228.070312 168.605469 C 229.332031 167.078125 231.121094 166.007812 233.191406 165.710938 L 240.132812 94.574219 C 238.871094 94.171875 237.714844 93.503906 236.800781 92.574219 L 208.648438 110.714844 C 209.3125 112.171875 209.699219 113.785156 209.699219 115.488281 C 209.699219 121.925781 204.476562 127.152344 198.042969 127.152344 C 195.621094 127.132812 193.378906 126.398438 191.503906 125.132812 Z M 133.6875 104.082031 C 136.140625 106.644531 137.71875 110.011719 138.121094 113.75 L 186.578125 113.75 C 187.066406 110.503906 188.855469 107.679688 191.449219 105.890625 L 172.078125 66.246094 C 171.449219 66.402344 170.78125 66.507812 170.097656 66.507812 C 168.695312 66.507812 167.398438 66.121094 166.242188 65.507812 Z M 124.414062 99.257812 C 126.851562 99.644531 129.113281 100.503906 131.058594 101.839844 L 163.578125 63.296875 C 162.507812 61.910156 161.824219 60.175781 161.824219 58.28125 C 161.824219 57.035156 162.121094 55.859375 162.613281 54.808594 L 138.59375 36.582031 C 135.773438 39.582031 131.863281 41.492188 127.464844 41.722656 Z M 36.042969 130.027344 C 36.707031 131.082031 37.214844 132.203125 37.636719 133.398438 L 105.550781 117.503906 C 105.460938 116.835938 105.339844 116.171875 105.339844 115.46875 C 105.339844 106.664062 112.265625 99.523438 120.960938 99.066406 L 124.046875 41.511719 C 121.46875 41.105469 119.101562 40.125 117.085938 38.667969 Z M 28.625 123.644531 C 30.605469 124.503906 32.394531 125.730469 33.886719 127.257812 L 114.507812 36.371094 C 113.472656 35.246094 112.613281 33.96875 111.929688 32.597656 C 72.875 51.105469 43.316406 84.296875 28.625 123.644531 Z M 37.375 252.878906 L 22.839844 155.203125 C 22.59375 155.21875 22.386719 155.273438 22.140625 155.273438 C 21.542969 155.273438 20.984375 155.167969 20.421875 155.097656 C 19.105469 163.394531 18.371094 171.851562 18.371094 180.394531 C 18.371094 206.546875 24.578125 231.265625 35.53125 253.210938 C 36.113281 253.054688 36.742188 252.949219 37.375 252.878906 Z M 63.476562 189.007812 C 57.570312 186.496094 53.433594 180.640625 53.433594 173.816406 C 53.433594 164.710938 60.8125 157.324219 69.910156 157.324219 C 73.488281 157.324219 76.78125 158.5 79.5 160.449219 L 109.671875 126.519531 C 108.199219 124.890625 107.058594 122.976562 106.320312 120.871094 L 38.40625 136.765625 C 38.496094 137.433594 38.617188 138.097656 38.617188 138.800781 C 38.617188 146.464844 33.359375 152.867188 26.257812 154.710938 L 40.898438 253 C 41.898438 253.195312 42.824219 253.5625 43.703125 253.984375 Z M 46.683594 256.035156 C 47.785156 257.089844 48.679688 258.367188 49.292969 259.789062 L 98.644531 246.652344 C 98.589844 246.230469 98.519531 245.808594 98.519531 245.371094 C 98.519531 241.984375 99.976562 238.96875 102.289062 236.84375 L 76.238281 189.042969 C 74.292969 189.847656 72.15625 190.304688 69.910156 190.304688 C 68.839844 190.304688 67.808594 190.183594 66.789062 189.988281 Z M 165.347656 338.574219 L 47.085938 272.859375 C 73.46875 311.222656 115.753906 337.800781 164.367188 342.957031 C 164.539062 341.449219 164.875 339.976562 165.347656 338.574219 Z M 171.605469 329.03125 L 143.871094 292.542969 C 142.207031 293.453125 140.332031 294.015625 138.296875 294.015625 C 131.863281 294.015625 126.640625 288.789062 126.640625 282.347656 C 126.640625 282.226562 126.675781 282.105469 126.675781 281.964844 L 49.699219 267.789062 C 49.46875 268.507812 49.191406 269.210938 48.839844 269.859375 L 166.695312 335.34375 C 167.960938 332.960938 169.605469 330.820312 171.605469 329.03125 Z M 192.449219 210.652344 C 192.097656 210.546875 191.730469 210.460938 191.398438 210.320312 L 146.363281 273.980469 C 148.570312 276.105469 149.957031 279.070312 149.957031 282.367188 C 149.957031 285.523438 148.691406 288.382812 146.640625 290.488281 L 174.324219 326.90625 C 177.6875 324.730469 181.667969 323.449219 185.945312 323.363281 Z M 192.503906 324.257812 L 215.117188 255.71875 C 211.328125 253.789062 208.699219 249.894531 208.699219 245.351562 C 208.699219 241.738281 210.367188 238.5625 212.941406 236.421875 L 197.304688 210.476562 C 196.851562 210.636719 196.394531 210.757812 195.902344 210.828125 L 189.398438 323.589844 C 190.449219 323.75 191.484375 323.976562 192.503906 324.257812 Z M 284.976562 238.703125 C 283.066406 237.265625 281.628906 235.265625 280.875 232.933594 L 231.15625 241.035156 C 231.699219 242.386719 232.015625 243.84375 232.015625 245.371094 C 232.015625 251.808594 226.792969 257.035156 220.359375 257.035156 C 219.691406 257.035156 219.042969 256.949219 218.394531 256.84375 L 195.761719 325.433594 C 197.902344 326.414062 199.828125 327.730469 201.53125 329.308594 Z M 295.511719 297.558594 C 295.40625 297.4375 295.300781 297.296875 295.195312 297.171875 L 207.261719 337.957031 C 207.699219 339.167969 208.070312 340.414062 208.316406 341.710938 C 241.921875 336.1875 272.089844 320.347656 295.511719 297.558594 Z M 301.769531 271.386719 L 293.304688 240.898438 C 292.828125 240.949219 292.375 241.035156 291.902344 241.035156 C 290.566406 241.035156 289.304688 240.773438 288.113281 240.351562 L 203.828125 331.871094 C 204.5625 332.800781 205.195312 333.765625 205.773438 334.820312 L 293.234375 294.261719 C 292.039062 291.980469 291.304688 289.4375 291.304688 286.683594 C 291.339844 279.71875 295.667969 273.804688 301.769531 271.386719 Z M 344.613281 191.988281 C 342.738281 191.460938 341.109375 190.320312 340.039062 188.742188 L 301.648438 223.003906 C 302.839844 224.828125 303.558594 227.019531 303.558594 229.371094 C 303.558594 234.109375 300.71875 238.175781 296.652344 240.003906 L 305.101562 270.472656 C 305.976562 270.332031 306.871094 270.191406 307.800781 270.191406 C 310.992188 270.191406 313.9375 271.140625 316.460938 272.699219 C 332.449219 249.421875 342.527344 221.792969 344.613281 191.988281 Z M 362.671875 115.46875 C 358.113281 115.46875 354.433594 119.152344 354.433594 123.714844 C 354.433594 128.273438 358.113281 131.957031 362.671875 131.957031 C 367.230469 131.957031 370.910156 128.273438 370.910156 123.714844 C 370.910156 119.171875 367.210938 115.46875 362.671875 115.46875 Z M 215.34375 25.214844 C 222.007812 25.214844 222.023438 14.847656 215.34375 14.847656 C 208.683594 14.847656 208.683594 25.214844 215.34375 25.214844 Z M 301.769531 85.101562 C 308.433594 85.101562 308.449219 74.734375 301.769531 74.734375 C 295.109375 74.734375 295.089844 85.101562 301.769531 85.101562 Z M 275.246094 50.035156 C 281.90625 50.035156 281.925781 39.667969 275.246094 39.667969 C 268.585938 39.667969 268.566406 50.035156 275.246094 50.035156 Z M 275.246094 50.035156 " clip-rule="nonzero"/></clipPath><linearGradient x1="1820.417373" gradientTransform="matrix(0.175306, 0, 0, 0.175424, 5.66103, 8.81131)" y1="2211.287371" x2="319.071392" gradientUnits="userSpaceOnUse" y2="-198.76603" id="2c1b59a715"><stop stop-opacity="1" stop-color="rgb(7.516479%, 41.668701%, 71.578979%)" offset="0"/><stop stop-opacity="1" stop-color="rgb(7.397461%, 41.7099%, 71.612549%)" offset="0.03125"/><stop stop-opacity="1" stop-color="rgb(7.16095%, 41.793823%, 71.679688%)" offset="0.0625"/><stop stop-opacity="1" stop-color="rgb(6.924438%, 41.876221%, 71.7453%)" offset="0.09375"/><stop stop-opacity="1" stop-color="rgb(6.687927%, 41.958618%, 71.812439%)" offset="0.125"/><stop stop-opacity="1" stop-color="rgb(6.44989%, 42.042542%, 71.879578%)" offset="0.15625"/><stop stop-opacity="1" stop-color="rgb(6.213379%, 42.124939%, 71.946716%)" offset="0.1875"/><stop stop-opacity="1" stop-color="rgb(5.976868%, 42.207336%, 72.012329%)" offset="0.21875"/><stop stop-opacity="1" stop-color="rgb(5.740356%, 42.289734%, 72.079468%)" offset="0.25"/><stop stop-opacity="1" stop-color="rgb(5.503845%, 42.373657%, 72.146606%)" offset="0.28125"/><stop stop-opacity="1" stop-color="rgb(5.267334%, 42.456055%, 72.213745%)" offset="0.3125"/><stop stop-opacity="1" stop-color="rgb(5.030823%, 42.538452%, 72.279358%)" offset="0.34375"/><stop stop-opacity="1" stop-color="rgb(4.794312%, 42.62085%, 72.346497%)" offset="0.375"/><stop stop-opacity="1" stop-color="rgb(4.556274%, 42.704773%, 72.413635%)" offset="0.387981"/><stop stop-opacity="1" stop-color="rgb(4.438782%, 42.745972%, 72.447205%)" offset="0.40625"/><stop stop-opacity="1" stop-color="rgb(4.319763%, 42.78717%, 72.480774%)" offset="0.4375"/><stop stop-opacity="1" stop-color="rgb(4.083252%, 42.869568%, 72.546387%)" offset="0.46875"/><stop stop-opacity="1" stop-color="rgb(3.846741%, 42.953491%, 72.613525%)" offset="0.5"/><stop stop-opacity="1" stop-color="rgb(3.610229%, 43.035889%, 72.680664%)" offset="0.53125"/><stop stop-opacity="1" stop-color="rgb(3.373718%, 43.118286%, 72.747803%)" offset="0.5625"/><stop stop-opacity="1" stop-color="rgb(3.137207%, 43.200684%, 72.813416%)" offset="0.59375"/><stop stop-opacity="1" stop-color="rgb(2.900696%, 43.284607%, 72.880554%)" offset="0.612019"/><stop stop-opacity="1" stop-color="rgb(2.783203%, 43.325806%, 72.914124%)" offset="0.625"/><stop stop-opacity="1" stop-color="rgb(2.664185%, 43.367004%, 72.947693%)" offset="0.65625"/><stop stop-opacity="1" stop-color="rgb(2.426147%, 43.449402%, 73.014832%)" offset="0.6875"/><stop stop-opacity="1" stop-color="rgb(2.189636%, 43.531799%, 73.080444%)" offset="0.71875"/><stop stop-opacity="1" stop-color="rgb(1.953125%, 43.615723%, 73.147583%)" offset="0.75"/><stop stop-opacity="1" stop-color="rgb(1.716614%, 43.69812%, 73.214722%)" offset="0.78125"/><stop stop-opacity="1" stop-color="rgb(1.480103%, 43.780518%, 73.28186%)" offset="0.8125"/><stop stop-opacity="1" stop-color="rgb(1.243591%, 43.862915%, 73.347473%)" offset="0.84375"/><stop stop-opacity="1" stop-color="rgb(1.00708%, 43.946838%, 73.414612%)" offset="0.875"/><stop stop-opacity="1" stop-color="rgb(0.770569%, 44.029236%, 73.48175%)" offset="0.90625"/><stop stop-opacity="1" stop-color="rgb(0.532532%, 44.111633%, 73.548889%)" offset="0.9375"/><stop stop-opacity="1" stop-color="rgb(0.296021%, 44.195557%, 73.614502%)" offset="0.96875"/><stop stop-opacity="1" stop-color="rgb(0.088501%, 44.267273%, 73.674011%)" offset="1"/></linearGradient></defs><g clip-path="url(#b4e4a3e57d)"><g clip-path="url(#32ec9c7e1c)"><path fill="url(#2c1b59a715)" d="M 5.660156 8.8125 L 5.660156 367.972656 L 370.910156 367.972656 L 370.910156 8.8125 Z M 5.660156 8.8125 " fill-rule="nonzero"/></g></g></svg>